<svg width="1065" height="1109" viewBox="0 0 1065 1109" fill="none" xmlns="http://www.w3.org/2000/svg">
<path fill-rule="evenodd" clip-rule="evenodd" d="M629.475 527.192L629.001 528.123C629.511 527.121 630 526.052 630.499 524.959L630.5 524.959L630.5 524.959L630.5 524.959L630.5 524.959L630.5 524.959L630.5 524.959L630.5 524.959L630.5 524.959L630.5 524.958L630.5 524.958L630.5 524.958C631.021 523.817 631.554 522.651 632.136 521.51L633.085 519.648C632.037 522.163 630.804 524.585 629.475 527.192ZM528.643 708.533C528.596 708.626 528.619 708.697 528.641 708.767C528.664 708.837 528.687 708.907 528.64 709.001C528.719 710.683 528.799 712.366 528.598 714.14C528.55 714.233 528.549 714.35 528.548 714.467L528.548 714.511C528.532 714.605 528.516 714.699 528.499 714.794C528.541 714.712 528.546 714.613 528.548 714.511C528.883 712.458 528.807 710.411 528.643 708.533ZM377.205 946.901C377.393 946.995 377.857 946.997 378.136 946.906C377.958 946.905 377.807 946.918 377.678 946.928L377.677 946.928C377.47 946.946 377.32 946.958 377.205 946.901ZM385.143 946.488C385.036 946.523 384.942 946.531 384.863 946.538C384.735 946.548 384.642 946.556 384.583 946.667C384.68 946.484 384.959 946.394 385.143 946.488ZM395.335 944.878L395.337 944.878C396.386 944.652 397.435 944.426 398.508 944.155C396.358 944.7 394.209 945.244 392.154 945.603C393.23 945.33 394.282 945.104 395.335 944.878ZM528.082 697.221C528.034 697.314 528.057 697.385 528.08 697.455C528.103 697.525 528.125 697.595 528.078 697.688C528.122 698.063 528.142 698.366 528.163 698.67C528.184 698.974 528.205 699.278 528.249 699.652C528.328 699.125 528.227 698.352 528.14 697.68L528.14 697.679C528.119 697.519 528.099 697.365 528.082 697.221ZM528.429 700.448C528.406 700.378 528.383 700.307 528.431 700.214C528.434 700.303 528.437 700.393 528.44 700.483L528.434 700.464L528.429 700.449L528.429 700.448ZM528.44 700.483L528.445 700.639C528.463 700.58 528.454 700.53 528.44 700.483ZM528.456 701.025L528.441 700.849L528.427 700.681L528.431 700.673L528.435 700.666L528.438 700.658L528.442 700.647L528.445 700.639C528.449 700.767 528.452 700.896 528.456 701.025ZM528.804 706.268C528.553 704.601 528.508 702.945 528.465 701.368L528.456 701.025C528.527 701.902 528.581 702.811 528.636 703.72C528.687 704.578 528.739 705.437 528.804 706.268ZM528.804 706.268C528.843 706.525 528.886 706.783 528.936 707.04C528.75 706.945 528.845 706.759 528.845 706.759C528.83 706.597 528.817 706.433 528.804 706.268ZM528.617 723.299C528.725 720.906 528.833 718.512 528.701 716.197C528.702 716.176 528.701 716.156 528.697 716.137C528.691 716.032 528.685 715.927 528.677 715.823C528.63 715.916 528.653 715.986 528.676 716.057C528.684 716.083 528.693 716.109 528.697 716.137L528.701 716.197C528.699 716.226 528.691 716.257 528.674 716.29C528.724 717.723 528.69 719.322 528.657 720.921L528.657 720.921L528.657 720.922L528.657 720.923L528.657 720.924C528.64 721.722 528.623 722.521 528.617 723.299ZM527.647 737.087C528.236 732.523 528.497 727.947 528.617 723.299C528.56 724.56 528.479 725.868 528.398 727.176C528.318 728.484 528.237 729.792 528.18 731.053C528.176 731.52 528.126 731.964 528.076 732.407C528.025 732.851 527.975 733.294 527.971 733.762C527.871 734.649 527.794 735.489 527.717 736.33C527.694 736.582 527.671 736.834 527.647 737.087ZM527.647 737.087C527.561 737.753 527.468 738.419 527.368 739.084L527.462 738.898C527.533 738.277 527.592 737.679 527.647 737.087ZM517.608 790.883L517.798 790.511C517.726 790.652 517.661 790.791 517.601 790.927C517.603 790.913 517.606 790.898 517.608 790.883ZM517.601 790.927C517.548 791.241 517.434 791.575 517.32 791.909C517.2 792.259 517.08 792.609 517.031 792.935C517.115 792.381 517.267 791.692 517.601 790.927ZM520.402 780.343L520.307 780.529C520.274 780.673 520.243 780.812 520.214 780.946C520.147 781.249 520.085 781.532 520.006 781.809C519.887 782.182 519.761 782.52 519.635 782.767C519.803 782.438 519.916 782.127 520.006 781.809C520.156 781.338 520.294 780.811 520.402 780.343ZM525.483 755.692C525.489 755.644 525.513 755.599 525.553 755.52L525.553 755.52L525.496 755.813C525.483 755.762 525.479 755.727 525.483 755.692ZM525.496 755.813C525.507 755.857 525.525 755.912 525.549 755.987C525.45 756.64 525.328 757.34 525.206 758.041L525.205 758.041C525.083 758.741 524.961 759.441 524.862 760.094C524.961 758.61 525.223 757.209 525.496 755.813ZM527.151 742.728C527.136 742.959 527.116 743.188 527.094 743.416C527.114 743.187 527.133 742.958 527.151 742.728ZM526.662 747.173C526.831 745.933 526.981 744.684 527.094 743.416C527.04 743.97 526.969 744.516 526.899 745.062C526.808 745.76 526.718 746.458 526.662 747.173ZM526.39 749.083L526.399 749.03C526.497 748.494 526.595 747.957 526.646 747.397C526.651 747.322 526.657 747.248 526.662 747.173C526.576 747.812 526.484 748.448 526.39 749.083ZM526.39 749.083C526.295 749.602 526.202 750.122 526.153 750.664C526.232 750.137 526.312 749.611 526.39 749.083ZM445.599 918.092C446.271 917.457 446.956 916.811 447.674 916.182C446.581 917.326 445.441 918.323 444.251 919.35C444.699 918.942 445.146 918.52 445.599 918.092ZM444.251 919.35C443.796 919.764 443.34 920.164 442.876 920.541C443.257 920.207 443.633 919.882 444.005 919.562L444.251 919.35ZM524.277 763.081C524.182 763.716 524.086 764.352 523.906 764.729C524.036 764.2 524.164 763.661 524.277 763.081ZM523.906 764.729C523.883 764.823 523.859 764.917 523.836 765.01L523.793 765.18L523.89 764.76L523.9 764.741L523.906 764.729ZM523.793 765.18L523.31 767.279C523.456 766.533 523.625 765.857 523.793 765.18ZM513.869 802.819L514.059 802.447C513.902 802.754 513.831 803.034 513.766 803.286C513.714 803.489 513.667 803.674 513.583 803.84C513.676 803.656 513.7 803.494 513.725 803.332C513.749 803.169 513.774 803.006 513.869 802.819ZM505.416 826.077C505.201 826.613 504.987 827.149 504.702 827.707L505.082 826.962C505.271 826.59 505.438 826.147 505.605 825.705C505.772 825.262 505.94 824.819 506.129 824.447C505.845 825.005 505.63 825.541 505.416 826.077ZM508.707 817.549C508.849 817.27 508.969 816.92 509.088 816.57L509.119 816.48C509.099 816.583 509.087 816.691 509.086 816.804L508.707 817.549ZM509.47 815.592C509.326 815.874 509.182 816.156 509.119 816.48C509.228 816.161 509.34 815.847 509.47 815.592ZM370.326 946.864L370.326 946.864L370.326 946.864L370.327 946.864L370.327 946.864L370.329 946.864L370.33 946.864C370.433 946.859 370.543 946.853 370.666 946.854C370.433 946.852 370.27 946.828 370.107 946.803C369.943 946.779 369.78 946.754 369.547 946.752C369.819 946.891 370.042 946.879 370.326 946.864ZM473.318 886.083C473.838 885.292 474.429 884.479 475.019 883.665C475.609 882.852 476.199 882.038 476.719 881.247L476.554 881.498L476.436 881.679C475.474 883.145 474.434 884.73 473.318 886.083ZM480.266 875.665C480.74 874.851 481.214 874.036 481.734 873.245C480.879 874.922 479.839 876.503 478.799 878.084C479.319 877.294 479.793 876.479 480.266 875.665ZM483.909 869.896C484.91 868.374 485.739 866.763 486.646 864.983C486.222 865.814 485.752 866.622 485.283 867.429L485.283 867.429C484.809 868.244 484.336 869.058 483.909 869.896ZM490.774 857.559C490.09 858.79 489.43 859.979 488.836 861.146C490.164 858.539 491.493 855.931 493.007 853.419C492.27 854.866 491.508 856.237 490.774 857.559Z" fill="url(#paint0_linear)"/>
<path d="M425.833 771.334C415.966 790.698 405.482 805.291 394.004 815.391C385.819 822.712 377.092 827.413 368.103 829.868C346.473 835.5 324.298 827.015 301.577 804.415L169.983 672.869L450.251 706.381L443.997 717.735C441.248 735.097 435.225 752.901 425.833 771.334Z" fill="url(#paint1_linear)"/>
<path d="M458.563 707.098L170.078 672.682L274.165 466.56L405.758 598.107C427.83 620.141 440.996 645.847 444.885 675.034L458.563 707.098Z" fill="url(#paint2_linear)"/>
<path d="M560.368 481.52C555.909 490.271 551.271 497.993 546.549 504.499C541.262 511.655 535.795 517.782 529.872 522.503C521.879 528.985 513.719 533.035 504.827 534.838C483.771 538.884 463.644 531.443 444.726 512.423L422.005 489.823L315.637 383.325L581.808 415.049C579.695 434.846 572.61 457.034 560.368 481.52Z" fill="url(#paint3_linear)"/>
<path d="M848.301 270.335L660.833 247.989L587.919 239.216L569.279 220.571L381.301 32.6213L641.684 63.741L848.301 270.335Z" fill="url(#paint4_linear)"/>
<path d="M749.686 897.414C750.73 895.366 751.773 893.318 752.817 891.27C753.481 889.966 754.24 888.477 754.904 887.173C755.189 886.615 755.378 886.242 755.663 885.684C757.276 882.519 758.702 879.258 760.129 875.998C760.319 875.626 760.414 875.44 760.603 875.067L760.698 874.881C762.22 871.435 763.741 867.988 765.077 864.447C765.266 864.075 765.456 863.703 765.551 863.516C765.836 862.958 765.934 862.304 766.219 861.746C767.266 859.23 768.408 856.529 769.269 853.919C769.553 853.36 769.652 852.707 769.936 852.148C770.126 851.776 770.221 851.589 770.225 851.122C771.465 847.767 772.705 844.412 773.76 840.962L773.855 840.776C773.949 840.59 774.139 840.218 774.048 839.937C775.099 836.954 775.963 833.877 776.828 830.799C777.017 830.427 777.021 829.959 777.211 829.587C777.309 828.934 777.499 828.561 777.597 827.908C778.272 825.203 779.133 822.593 779.808 819.887C779.906 819.234 780.191 818.675 780.195 818.208C780.289 818.022 780.198 817.741 780.293 817.555C781.161 814.01 782.029 810.465 782.711 806.826C782.806 806.64 782.81 806.172 782.905 805.986C783.196 804.493 783.583 802.814 783.875 801.321C783.973 800.667 784.163 800.295 784.261 799.642C784.746 797.309 785.045 794.881 785.53 792.549C785.625 792.362 785.625 792.362 785.534 792.081C786.023 789.281 786.325 786.387 786.814 783.587C787.116 780.692 787.419 777.797 787.721 774.902C787.816 774.716 787.816 774.716 787.725 774.435C787.83 772.847 787.936 771.259 788.136 769.485C788.143 768.551 788.337 767.711 788.344 766.777C788.552 764.068 788.664 761.546 788.872 758.837C788.985 756.315 789.002 753.978 789.02 751.642C788.933 750.894 789.031 750.241 788.943 749.492C788.958 747.623 788.877 745.94 788.796 744.258C788.709 743.509 788.807 742.856 788.719 742.108C788.642 739.958 788.471 737.994 788.394 735.844C788.302 735.563 788.397 735.377 788.401 734.909L788.496 734.723C788.408 733.975 788.411 733.508 788.324 732.759C788.152 730.796 788.075 728.646 787.903 726.682C787.724 725.652 787.731 724.718 787.552 723.689C787.285 721.911 787.205 720.228 786.843 718.637C786.752 718.356 786.847 718.169 786.755 717.888C786.489 716.111 786.127 714.519 785.86 712.742C785.769 712.461 785.678 712.18 785.681 711.712C785.323 709.654 784.965 707.595 784.421 705.441C784.516 705.255 784.33 705.16 784.425 704.974C783.701 701.791 782.978 698.609 782.16 695.612C782.069 695.331 781.977 695.05 781.886 694.769C781.704 694.207 781.521 693.644 781.338 693.082C780.794 690.929 780.064 688.68 779.52 686.527C779.337 685.965 779.154 685.403 779.158 684.935C779.067 684.654 778.884 684.092 778.793 683.811C778.062 681.563 777.332 679.315 776.602 677.066C776.419 676.504 776.328 676.223 776.145 675.661L776.054 675.38C775.046 672.756 773.947 669.85 772.939 667.226C772.848 666.945 772.848 666.945 772.757 666.664C772.574 666.102 772.391 665.54 771.928 665.069C771.102 663.007 770.182 661.131 769.357 659.068C769.08 658.693 769.083 658.225 768.806 657.849C768.623 657.287 768.16 656.817 767.977 656.254C767.057 654.378 766.137 652.502 765.217 650.626C765.034 650.064 764.665 649.407 764.388 649.031C764.296 648.75 764.019 648.374 763.928 648.093C762.639 645.56 761.35 643.028 759.78 640.586C759.689 640.305 759.503 640.21 759.597 640.024C759.597 640.024 759.411 639.929 759.506 639.743L499.124 608.623C499.215 608.904 499.306 609.185 499.492 609.28C500.781 611.813 502.351 614.255 503.64 616.788C504.1 617.726 504.655 618.477 504.929 619.321C505.849 621.197 506.769 623.073 507.689 624.949C508.149 625.887 508.609 626.825 508.883 627.668C509.708 629.73 510.629 631.606 511.454 633.668C511.823 634.325 512.096 635.168 512.279 635.73C513.473 638.449 514.481 641.074 515.394 643.884C515.576 644.446 515.759 645.008 515.942 645.571C516.672 647.819 517.402 650.067 518.133 652.316C518.407 653.159 518.68 654.002 518.86 655.031C519.59 657.28 520.134 659.433 520.678 661.587C520.952 662.43 521.226 663.273 521.314 664.021C522.037 667.204 522.855 670.201 523.483 673.57C523.933 675.91 524.477 678.063 524.74 680.308C524.831 680.589 524.923 680.87 524.919 681.337C525.277 683.396 525.544 685.174 525.902 687.232C526.169 689.01 526.344 690.507 526.611 692.284C526.79 693.314 526.783 694.248 526.962 695.277C527.134 697.241 527.211 699.391 527.569 701.45C527.657 702.198 527.558 702.852 527.741 703.414C527.832 703.695 527.642 704.067 527.734 704.348C527.811 706.498 527.982 708.462 528.059 710.612C528.147 711.36 528.049 712.014 528.136 712.762C528.217 714.445 528.203 716.314 528.283 717.997C528.371 718.745 528.273 719.398 528.36 720.147C528.342 722.483 528.23 725.005 528.212 727.341C528.099 729.864 527.891 732.572 527.684 735.281C527.677 736.216 527.483 737.055 527.476 737.99C527.276 739.764 527.17 741.352 527.156 743.221C526.853 746.115 526.551 749.01 526.248 751.905C525.946 754.8 525.457 757.6 524.969 760.4C524.67 762.827 524.09 765.346 523.696 767.96C523.598 768.613 523.408 768.986 523.309 769.639C523.014 771.599 522.628 773.279 522.146 775.144C521.278 778.689 520.596 782.328 519.728 785.873C519.535 786.713 519.341 787.552 519.057 788.111C518.382 790.816 517.707 793.521 516.846 796.131C516.558 797.157 516.27 798.183 515.981 799.209C515.117 802.286 514.066 805.269 513.202 808.346C513.012 808.719 513.103 809 512.913 809.372C511.859 812.822 510.619 816.177 509.378 819.532C509.09 820.558 508.616 821.489 508.422 822.328C507.375 824.844 506.419 827.64 505.372 830.155C504.898 831.086 504.61 832.112 504.135 833.043C502.614 836.489 501.279 840.031 499.571 843.382C499.381 843.754 499.191 844.127 499.002 844.499C497.575 847.759 495.962 850.925 494.536 854.185C493.587 856.047 492.638 857.909 491.69 859.77C490.361 862.377 489.033 864.984 487.519 867.496C486.855 868.799 486.191 870.102 485.341 871.311C484.487 872.987 483.447 874.567 482.593 876.243C481.929 877.547 481.173 878.569 480.509 879.872C479.469 881.453 478.429 883.034 477.481 884.896C476.725 885.918 476.156 887.035 475.401 888.058C474.266 889.825 473.226 891.406 471.905 893.078C471.244 893.914 470.77 894.845 470.014 895.867C468.599 897.726 467.183 899.584 465.672 901.629C465.201 902.092 464.917 902.651 464.446 903.115C462.559 905.437 460.672 907.759 458.786 910.081C458.22 910.731 457.654 911.381 457.089 912.031C455.768 913.703 454.355 915.094 452.848 916.671C451.907 917.599 451.246 918.435 450.305 919.362C448.892 920.754 447.385 922.331 445.973 923.722C444.185 925.391 442.396 927.059 440.422 928.633C439.575 929.375 438.823 929.93 437.977 930.671C436.754 931.69 435.532 932.708 434.123 933.632C433.09 934.279 432.148 935.206 431.116 935.853C429.331 937.054 427.451 938.442 425.667 939.643C425.572 939.829 425.386 939.734 425.291 939.921C423.32 941.027 421.535 942.229 419.564 943.335C419.002 943.518 418.532 943.982 417.97 944.164C415.813 945.176 413.656 946.188 411.499 947.2C411.123 947.477 410.655 947.474 410.28 947.751C408.498 948.485 406.717 949.219 404.75 949.859C403.907 950.133 403.345 950.316 402.502 950.59C400.816 951.138 399.129 951.686 397.538 952.047C396.79 952.135 396.133 952.504 395.385 952.592C392.95 953.228 390.611 953.677 388.271 954.127C378.727 955.831 368.82 955.943 358.644 954.745L619.027 985.864C629.389 987.157 639.204 986.764 648.654 985.247C650.993 984.797 653.333 984.347 655.767 983.712C656.516 983.624 657.172 983.255 657.921 983.167C659.607 982.619 661.198 982.257 662.884 981.709C663.728 981.435 664.29 981.252 665.133 980.978C666.914 980.244 668.881 979.605 670.662 978.871C671.038 978.593 671.505 978.597 671.881 978.319L672.162 978.228C674.224 977.402 676.195 976.296 678.352 975.284C678.914 975.101 679.385 974.638 679.947 974.455C680.885 973.995 681.542 973.626 682.48 973.166C683.513 972.519 684.732 971.968 685.86 971.135C685.954 970.949 686.141 971.044 686.235 970.858C687.644 969.934 688.958 969.196 690.181 968.177C690.651 967.713 691.214 967.531 691.684 967.067C692.717 966.421 693.659 965.493 694.692 964.847C695.349 964.478 696.1 963.923 696.571 963.459C697.228 963.09 697.794 962.44 698.264 961.977C699.111 961.235 699.863 960.68 700.71 959.939C701.18 959.475 701.651 959.012 702.308 958.643C703.626 957.438 704.943 956.233 706.261 955.028C706.731 954.564 707.202 954.1 707.768 953.451C708.709 952.523 709.651 951.596 710.592 950.668C711.534 949.741 712.381 949 713.136 947.977C713.231 947.791 713.512 947.7 713.702 947.327C714.833 946.028 716.059 944.541 717.377 943.337C717.942 942.687 718.508 942.037 719.073 941.387C719.168 941.201 719.168 941.201 719.263 941.014C721.055 938.878 722.847 936.743 724.639 934.607L724.733 934.42C725.204 933.957 725.489 933.398 725.96 932.934C727.281 931.262 728.507 929.776 729.642 928.009C729.831 927.637 729.926 927.451 730.302 927.173C730.963 926.337 731.437 925.406 732.192 924.384C733.043 923.175 733.798 922.153 734.648 920.944C734.933 920.386 735.404 919.922 735.594 919.55C736.349 918.527 736.918 917.41 737.673 916.388C738.334 915.552 738.808 914.621 739.469 913.785C739.848 913.04 740.414 912.39 740.793 911.645C741.549 910.623 742.213 909.32 742.877 908.016C743.257 907.272 743.822 906.622 744.202 905.877C744.676 904.946 745.15 904.015 745.811 903.179C746.475 901.875 747.325 900.667 747.989 899.364C749.117 898.531 749.402 897.972 749.686 897.414Z" fill="url(#paint5_linear)"/>
<path d="M772.946 641.9L512.563 610.78C533.383 613.18 553.038 609.123 571.717 598.236C594.151 585.041 613.953 561.827 630.653 528.59C658.359 473.754 667.544 421.209 658.116 371.14C648.781 320.885 625.009 276.877 586.988 238.741L847.37 269.861C885.392 307.996 909.164 352.005 918.498 402.26C927.927 452.329 918.741 504.874 891.036 559.709C874.335 592.946 854.534 616.161 832.099 629.356C813.607 640.337 793.952 644.394 772.946 641.9Z" fill="url(#paint6_linear)"/>
<path d="M586.988 238.741L847.37 269.861C850.616 273.156 853.861 276.452 856.826 279.838L596.443 248.719C593.479 245.332 590.233 242.037 586.988 238.741Z" fill="url(#paint7_linear)"/>
<path d="M596.443 248.719L856.825 279.838C859.885 283.039 862.663 286.331 865.532 289.903L605.15 258.784C602.466 255.306 599.502 251.919 596.443 248.719Z" fill="url(#paint8_linear)"/>
<path d="M605.245 258.598L865.627 289.717C868.219 292.914 870.811 296.111 873.217 299.213L612.835 268.094C610.429 264.992 607.837 261.795 605.245 258.598Z" fill="url(#paint9_linear)"/>
<path d="M612.74 268.28L873.122 299.399C875.342 302.407 877.562 305.414 879.687 308.607L619.304 277.488C617.179 274.294 614.959 271.287 612.74 268.28Z" fill="url(#paint10_linear)"/>
<path d="M619.304 277.488L879.782 308.421C881.815 311.334 883.754 314.432 885.692 317.531L625.31 286.411C623.371 283.313 621.524 280.495 619.304 277.488Z" fill="url(#paint11_linear)"/>
<path d="M625.31 286.411L885.693 317.531C887.445 320.534 889.293 323.352 891.045 326.356L630.662 295.236C629.001 292.513 627.249 289.51 625.31 286.411Z" fill="url(#paint12_linear)"/>
<path d="M630.567 295.422L891.045 326.356C892.797 329.359 894.364 332.268 895.835 335.363L635.452 304.244C633.886 301.335 632.32 298.426 630.567 295.422Z" fill="url(#paint13_linear)"/>
<path d="M635.453 304.244L895.835 335.363C897.402 338.272 898.873 341.367 900.158 344.368L639.776 313.248C638.49 310.248 636.924 307.339 635.453 304.244Z" fill="url(#paint14_linear)"/>
<path d="M639.962 313.343L900.345 344.462C901.816 347.557 903.101 350.558 904.292 353.744L643.909 322.624C642.719 319.438 641.247 316.343 639.962 313.343Z" fill="url(#paint15_linear)"/>
<path d="M643.909 322.624L904.292 353.744C905.668 357.025 906.859 360.212 908.049 363.398L647.667 332.278C646.476 329.092 645.286 325.906 643.909 322.624Z" fill="url(#paint16_linear)"/>
<path d="M647.667 332.278L908.049 363.398C909.331 366.865 910.426 370.238 911.522 373.611L651.139 342.491C650.044 339.118 648.948 335.746 647.667 332.278Z" fill="url(#paint17_linear)"/>
<path d="M651.139 342.491L911.522 373.611C912.709 377.264 913.801 381.104 914.706 384.849L654.324 353.729C653.418 349.984 652.326 346.145 651.139 342.491Z" fill="url(#paint18_linear)"/>
<path d="M654.324 353.729L914.706 384.849C915.89 388.97 916.792 393.182 917.694 397.394L657.312 366.275C656.409 362.063 655.507 357.85 654.324 353.729Z" fill="url(#paint19_linear)"/>
<path d="M657.312 366.275L917.694 397.394C918.056 398.986 918.323 400.763 918.684 402.355C919.225 404.976 919.671 407.783 920.025 410.309L659.642 379.189C659.383 376.477 658.842 373.856 658.302 371.235C658.035 369.458 657.673 367.866 657.312 366.275Z" fill="url(#paint20_linear)"/>
<path d="M659.643 379.189L920.025 410.309C920.825 415.641 921.345 421.066 921.678 426.395L661.295 395.275C660.962 389.946 660.443 384.522 659.643 379.189Z" fill="url(#paint21_linear)"/>
<path d="M661.295 395.275L921.678 426.395C922.431 437.802 922.251 449.202 921.227 460.876L660.844 429.756C661.868 418.082 662.049 406.682 661.295 395.275Z" fill="url(#paint22_linear)"/>
<path d="M660.844 429.756L921.227 460.876C920.815 465.826 920.123 470.867 919.244 475.814L658.861 444.694C659.74 439.748 660.433 434.706 660.844 429.756Z" fill="url(#paint23_linear)"/>
<path d="M658.861 444.694L919.244 475.814C918.748 479.548 917.971 483.374 917.289 487.013L656.907 455.894C657.684 452.068 658.366 448.428 658.861 444.694Z" fill="url(#paint24_linear)"/>
<path d="M656.907 455.894L917.289 487.013C916.516 490.372 915.743 493.73 914.97 497.089L654.587 465.969C655.36 462.611 656.133 459.252 656.907 455.894Z" fill="url(#paint25_linear)"/>
<path d="M654.587 465.969L914.97 497.089C914.291 500.261 913.332 503.525 912.372 506.789L651.99 475.669C652.763 472.31 653.722 469.047 654.587 465.969Z" fill="url(#paint26_linear)"/>
<path d="M651.804 475.574L912.186 506.694C911.227 509.957 910.362 513.035 909.217 516.204L648.834 485.084C649.98 481.915 650.939 478.651 651.804 475.574Z" fill="url(#paint27_linear)"/>
<path d="M648.834 485.084L909.311 516.017C908.166 519.186 907.206 522.45 905.875 525.524L645.492 494.404C646.729 491.516 647.874 488.348 648.834 485.084Z" fill="url(#paint28_linear)"/>
<path d="M645.584 494.685L905.966 525.805C904.821 528.974 903.58 532.329 902.153 535.589L641.771 504.469C643.011 501.114 644.343 498.04 645.584 494.685Z" fill="url(#paint29_linear)"/>
<path d="M641.771 504.469L902.154 535.589C900.727 538.849 899.392 542.39 897.779 545.555L637.396 514.436C638.823 511.175 640.344 507.729 641.771 504.469Z" fill="url(#paint30_linear)"/>
<path d="M637.396 514.436L897.779 545.555C896.257 549.002 894.455 552.539 892.933 555.986L632.55 524.866C634.258 521.514 635.78 518.068 637.396 514.436Z" fill="url(#paint31_linear)"/>
<path d="M632.456 525.052L892.838 556.172C892.269 557.289 891.605 558.592 891.036 559.709C890.087 561.571 889.138 563.433 888.19 565.295L627.807 534.176C628.756 532.314 629.704 530.452 630.653 528.59C631.222 527.473 631.886 526.169 632.456 525.052Z" fill="url(#paint32_linear)"/>
<path d="M627.807 534.176L888.19 565.295C886.862 567.902 885.347 570.414 884.019 573.02L623.637 541.901C624.965 539.294 626.479 536.782 627.807 534.176Z" fill="url(#paint33_linear)"/>
<path d="M623.45 541.806L883.833 572.926C882.413 575.251 880.994 577.577 879.574 579.902L619.192 548.783C620.797 546.552 622.217 544.226 623.45 541.806Z" fill="url(#paint34_linear)"/>
<path d="M619.378 548.878L879.761 579.997C878.436 582.137 877.111 584.276 875.601 586.321L615.218 555.201C616.543 553.062 618.053 551.017 619.378 548.878Z" fill="url(#paint35_linear)"/>
<path d="M615.218 555.201L875.601 586.321C874.371 588.274 872.86 590.319 871.444 592.177L611.062 561.057C612.477 559.199 613.893 557.341 615.218 555.201Z" fill="url(#paint36_linear)"/>
<path d="M611.062 561.057L871.444 592.177C870.029 594.036 868.613 595.894 867.292 597.566L606.909 566.446C608.416 564.869 609.646 562.916 611.062 561.057Z" fill="url(#paint37_linear)"/>
<path d="M606.909 566.446L867.291 597.566C865.875 599.425 864.554 601.097 863.047 602.674L602.665 571.554C604.172 569.977 605.493 568.305 606.909 566.446Z" fill="url(#paint38_linear)"/>
<path d="M602.851 571.649L863.233 602.769C861.912 604.441 860.405 606.018 858.898 607.596L598.515 576.476C600.022 574.899 601.343 573.227 602.851 571.649Z" fill="url(#paint39_linear)"/>
<path d="M598.515 576.476L858.898 607.596C857.391 609.173 855.884 610.751 854.376 612.328L593.994 581.208C595.501 579.631 597.008 578.054 598.515 576.476Z" fill="url(#paint40_linear)"/>
<path d="M593.994 581.208L854.285 612.047C852.778 613.624 851.084 615.107 849.391 616.589L589.008 585.47C590.793 584.268 592.3 582.691 593.994 581.208Z" fill="url(#paint41_linear)"/>
<path d="M589.195 585.564L849.577 616.684C847.884 618.167 846.19 619.649 844.311 621.037L583.928 589.917C585.527 588.621 587.406 587.233 589.195 585.564Z" fill="url(#paint42_linear)"/>
<path d="M583.928 589.917L844.311 621.037C842.337 622.611 840.457 623.998 838.391 625.291L578.009 594.171C579.98 593.065 581.954 591.491 583.928 589.917Z" fill="url(#paint43_linear)"/>
<path d="M577.914 594.357L838.296 625.477C836.136 626.956 834.07 628.249 832.004 629.542C831.723 629.633 831.347 629.911 831.253 630.097L570.87 598.977C571.151 598.886 571.527 598.608 571.622 598.422C573.782 596.943 575.848 595.65 577.914 594.357Z" fill="url(#paint44_linear)"/>
<path d="M570.965 598.791L831.348 629.911C828.063 631.755 824.873 633.413 821.497 634.976L561.114 603.857C564.304 602.199 567.68 600.635 570.965 598.791Z" fill="url(#paint45_linear)"/>
<path d="M560.928 603.762L821.311 634.881C805.935 641.588 789.751 643.896 772.851 642.086L512.468 610.966C529.554 612.871 545.738 610.563 560.928 603.762Z" fill="url(#paint46_linear)"/>
<path fill-rule="evenodd" clip-rule="evenodd" d="M507.252 828.767C512.017 816.654 516.033 804.629 519.397 792.506C525.262 770.868 528.606 749.119 529.329 727.91C530.968 684.654 520.895 645.514 499.963 608.816C525.985 615.274 550.213 611.905 572.648 598.71C595.082 585.515 614.883 562.301 631.584 529.064L632.058 528.133C639.079 514.355 644.603 500.752 649.378 487.237C662.859 447.434 666.145 408.769 659.233 371.71C654.472 346.535 646.15 322.828 634.266 300.59C622.473 278.633 607.022 258.331 588.105 239.31L569.465 220.666L381.487 32.7162L48.0721 692.603L243.376 887.804C270.734 915.112 296.755 933.999 321.533 944.278C346.31 954.558 368.992 957.907 390.045 954.327C410.911 950.653 430.145 940.518 447.466 924.013C464.786 907.509 480.087 886.224 492.993 860.434C498.119 849.913 503.06 839.296 507.252 828.767ZM408.138 201.32L529.623 322.791C549.841 342.943 561.911 365.275 565.744 389.509C566.902 396.9 567.028 404.938 566.31 413.25C564.484 432.021 557.878 452.811 546.209 475.713C542.034 483.905 537.681 491.068 533.24 497.483L517.599 514.374C510.263 520.487 502.198 524.351 493.963 525.784C474.217 529.56 455.302 522.502 437.403 504.705L416.167 483.331L315.918 383.234L408.138 201.32ZM368.102 829.868C377.092 827.413 385.818 822.712 394.004 815.391C405.482 805.291 416.061 790.512 425.927 771.148C435.225 752.901 441.343 734.911 444.187 717.363C446.44 703.736 446.73 690.28 445.242 677.092C445.06 676.53 444.972 675.782 444.884 675.034L444.884 675.034C440.996 645.847 427.83 620.141 405.758 598.107L274.164 466.56L169.983 672.869L301.577 804.415C324.298 827.015 346.473 835.499 368.102 829.868Z" fill="url(#paint47_linear)"/>
<path d="M566.497 413.345L316.29 383.424L408.325 201.415L529.81 322.886C550.027 343.037 562.098 365.37 565.93 389.604C567.089 396.995 567.214 405.033 566.497 413.345Z" fill="url(#paint48_linear)"/>
<defs>
<linearGradient id="paint0_linear" x1="181.606" y1="1261.04" x2="312.489" y2="1323.34" gradientUnits="userSpaceOnUse">
<stop stop-color="#0D1CF1"/>
<stop offset="0.1213" stop-color="#0D1AE8"/>
<stop offset="0.3229" stop-color="#0C16CE"/>
<stop offset="0.58" stop-color="#0A0EA5"/>
<stop offset="0.8797" stop-color="#08046C"/>
<stop offset="0.9944" stop-color="#070054"/>
</linearGradient>
<linearGradient id="paint1_linear" x1="211.958" y1="260.839" x2="-145.138" y2="720.102" gradientUnits="userSpaceOnUse">
<stop stop-color="#043DF1"/>
<stop offset="0.109" stop-color="#0446ED"/>
<stop offset="0.2904" stop-color="#0360E0"/>
<stop offset="0.5217" stop-color="#0289CD"/>
<stop offset="0.7911" stop-color="#01C2B2"/>
<stop offset="0.9944" stop-color="#00F29B"/>
</linearGradient>
<linearGradient id="paint2_linear" x1="185.071" y1="674.626" x2="433.565" y2="687.838" gradientUnits="userSpaceOnUse">
<stop stop-color="#0D1CF1"/>
<stop offset="0.1213" stop-color="#0D1AE8"/>
<stop offset="0.3229" stop-color="#0C16CE"/>
<stop offset="0.58" stop-color="#0A0EA5"/>
<stop offset="0.8797" stop-color="#08046C"/>
<stop offset="0.9944" stop-color="#070054"/>
</linearGradient>
<linearGradient id="paint3_linear" x1="542.016" y1="288.357" x2="304.322" y2="458.229" gradientUnits="userSpaceOnUse">
<stop stop-color="#043DF1"/>
<stop offset="0.109" stop-color="#0446ED"/>
<stop offset="0.2904" stop-color="#0360E0"/>
<stop offset="0.5217" stop-color="#0289CD"/>
<stop offset="0.7911" stop-color="#01C2B2"/>
<stop offset="0.9944" stop-color="#00F29B"/>
</linearGradient>
<linearGradient id="paint4_linear" x1="-281.075" y1="-538.902" x2="-574.61" y2="108.695" gradientUnits="userSpaceOnUse">
<stop stop-color="#043DF1"/>
<stop offset="0.1088" stop-color="#0446ED"/>
<stop offset="0.2898" stop-color="#0360E0"/>
<stop offset="0.5207" stop-color="#0289CD"/>
<stop offset="0.7895" stop-color="#01C2B2"/>
<stop offset="0.9924" stop-color="#00F29B"/>
</linearGradient>
<linearGradient id="paint5_linear" x1="515.932" y1="635.445" x2="470.686" y2="937.441" gradientUnits="userSpaceOnUse">
<stop stop-color="#043DF1"/>
<stop offset="0.1088" stop-color="#0446ED"/>
<stop offset="0.2898" stop-color="#0360E0"/>
<stop offset="0.5207" stop-color="#0289CD"/>
<stop offset="0.7895" stop-color="#01C2B2"/>
<stop offset="0.9924" stop-color="#00F29B"/>
</linearGradient>
<linearGradient id="paint6_linear" x1="432.609" y1="-119.716" x2="402.404" y2="627.436" gradientUnits="userSpaceOnUse">
<stop stop-color="#043DF1"/>
<stop offset="0.1088" stop-color="#0446ED"/>
<stop offset="0.2898" stop-color="#0360E0"/>
<stop offset="0.5207" stop-color="#0289CD"/>
<stop offset="0.7895" stop-color="#01C2B2"/>
<stop offset="0.9924" stop-color="#00F29B"/>
</linearGradient>
<linearGradient id="paint7_linear" x1="-110.983" y1="-496.712" x2="-401.193" y2="153.925" gradientUnits="userSpaceOnUse">
<stop stop-color="#043DF1"/>
<stop offset="0.1088" stop-color="#0446ED"/>
<stop offset="0.2898" stop-color="#0360E0"/>
<stop offset="0.5207" stop-color="#0289CD"/>
<stop offset="0.7895" stop-color="#01C2B2"/>
<stop offset="0.9924" stop-color="#00F29B"/>
</linearGradient>
<linearGradient id="paint8_linear" x1="-95.3848" y1="-492.43" x2="-385.201" y2="158.562" gradientUnits="userSpaceOnUse">
<stop stop-color="#043DF1"/>
<stop offset="0.1088" stop-color="#0446ED"/>
<stop offset="0.2898" stop-color="#0360E0"/>
<stop offset="0.5207" stop-color="#0289CD"/>
<stop offset="0.7895" stop-color="#01C2B2"/>
<stop offset="0.9924" stop-color="#00F29B"/>
</linearGradient>
<linearGradient id="paint9_linear" x1="-82.3614" y1="-489.182" x2="-371.893" y2="162.066" gradientUnits="userSpaceOnUse">
<stop stop-color="#043DF1"/>
<stop offset="0.1088" stop-color="#0446ED"/>
<stop offset="0.2898" stop-color="#0360E0"/>
<stop offset="0.5207" stop-color="#0289CD"/>
<stop offset="0.7895" stop-color="#01C2B2"/>
<stop offset="0.9924" stop-color="#00F29B"/>
</linearGradient>
<linearGradient id="paint10_linear" x1="-69.2681" y1="-485.398" x2="-358.429" y2="166.183" gradientUnits="userSpaceOnUse">
<stop stop-color="#043DF1"/>
<stop offset="0.1088" stop-color="#0446ED"/>
<stop offset="0.2898" stop-color="#0360E0"/>
<stop offset="0.5207" stop-color="#0289CD"/>
<stop offset="0.7895" stop-color="#01C2B2"/>
<stop offset="0.9924" stop-color="#00F29B"/>
</linearGradient>
<linearGradient id="paint11_linear" x1="-58.3536" y1="-482.476" x2="-347.237" y2="169.354" gradientUnits="userSpaceOnUse">
<stop stop-color="#043DF1"/>
<stop offset="0.1088" stop-color="#0446ED"/>
<stop offset="0.2898" stop-color="#0360E0"/>
<stop offset="0.5207" stop-color="#0289CD"/>
<stop offset="0.7895" stop-color="#01C2B2"/>
<stop offset="0.9924" stop-color="#00F29B"/>
</linearGradient>
<linearGradient id="paint12_linear" x1="-49.8705" y1="-480.646" x2="-338.605" y2="171.316" gradientUnits="userSpaceOnUse">
<stop stop-color="#043DF1"/>
<stop offset="0.1088" stop-color="#0446ED"/>
<stop offset="0.2898" stop-color="#0360E0"/>
<stop offset="0.5207" stop-color="#0289CD"/>
<stop offset="0.7895" stop-color="#01C2B2"/>
<stop offset="0.9924" stop-color="#00F29B"/>
</linearGradient>
<linearGradient id="paint13_linear" x1="-39.1138" y1="-477.232" x2="-327.483" y2="175.056" gradientUnits="userSpaceOnUse">
<stop stop-color="#043DF1"/>
<stop offset="0.1088" stop-color="#0446ED"/>
<stop offset="0.2898" stop-color="#0360E0"/>
<stop offset="0.5207" stop-color="#0289CD"/>
<stop offset="0.7895" stop-color="#01C2B2"/>
<stop offset="0.9924" stop-color="#00F29B"/>
</linearGradient>
<linearGradient id="paint14_linear" x1="-30.568" y1="-474.887" x2="-318.703" y2="177.61" gradientUnits="userSpaceOnUse">
<stop stop-color="#043DF1"/>
<stop offset="0.1088" stop-color="#0446ED"/>
<stop offset="0.2898" stop-color="#0360E0"/>
<stop offset="0.5207" stop-color="#0289CD"/>
<stop offset="0.7895" stop-color="#01C2B2"/>
<stop offset="0.9924" stop-color="#00F29B"/>
</linearGradient>
<linearGradient id="paint15_linear" x1="-21.3439" y1="-471.971" x2="-309.159" y2="180.81" gradientUnits="userSpaceOnUse">
<stop stop-color="#043DF1"/>
<stop offset="0.1088" stop-color="#0446ED"/>
<stop offset="0.2898" stop-color="#0360E0"/>
<stop offset="0.5207" stop-color="#0289CD"/>
<stop offset="0.7895" stop-color="#01C2B2"/>
<stop offset="0.9924" stop-color="#00F29B"/>
</linearGradient>
<linearGradient id="paint16_linear" x1="-13.1118" y1="-469.484" x2="-300.656" y2="183.538" gradientUnits="userSpaceOnUse">
<stop stop-color="#043DF1"/>
<stop offset="0.1088" stop-color="#0446ED"/>
<stop offset="0.2898" stop-color="#0360E0"/>
<stop offset="0.5207" stop-color="#0289CD"/>
<stop offset="0.7895" stop-color="#01C2B2"/>
<stop offset="0.9924" stop-color="#00F29B"/>
</linearGradient>
<linearGradient id="paint17_linear" x1="-3.48219" y1="-466.06" x2="-290.618" y2="187.323" gradientUnits="userSpaceOnUse">
<stop stop-color="#043DF1"/>
<stop offset="0.1088" stop-color="#0446ED"/>
<stop offset="0.2898" stop-color="#0360E0"/>
<stop offset="0.5207" stop-color="#0289CD"/>
<stop offset="0.7895" stop-color="#01C2B2"/>
<stop offset="0.9924" stop-color="#00F29B"/>
</linearGradient>
<linearGradient id="paint18_linear" x1="8.54801" y1="-461.141" x2="-277.954" y2="192.801" gradientUnits="userSpaceOnUse">
<stop stop-color="#043DF1"/>
<stop offset="0.1088" stop-color="#0446ED"/>
<stop offset="0.2898" stop-color="#0360E0"/>
<stop offset="0.5207" stop-color="#0289CD"/>
<stop offset="0.7895" stop-color="#01C2B2"/>
<stop offset="0.9924" stop-color="#00F29B"/>
</linearGradient>
<linearGradient id="paint19_linear" x1="21.2438" y1="-455.751" x2="-264.534" y2="198.826" gradientUnits="userSpaceOnUse">
<stop stop-color="#043DF1"/>
<stop offset="0.1088" stop-color="#0446ED"/>
<stop offset="0.2898" stop-color="#0360E0"/>
<stop offset="0.5207" stop-color="#0289CD"/>
<stop offset="0.7895" stop-color="#01C2B2"/>
<stop offset="0.9924" stop-color="#00F29B"/>
</linearGradient>
<linearGradient id="paint20_linear" x1="31.1556" y1="-451.81" x2="-254.089" y2="203.232" gradientUnits="userSpaceOnUse">
<stop stop-color="#043DF1"/>
<stop offset="0.1088" stop-color="#0446ED"/>
<stop offset="0.2898" stop-color="#0360E0"/>
<stop offset="0.5207" stop-color="#0289CD"/>
<stop offset="0.7895" stop-color="#01C2B2"/>
<stop offset="0.9924" stop-color="#00F29B"/>
</linearGradient>
<linearGradient id="paint21_linear" x1="55.1025" y1="-439.365" x2="-228.223" y2="217.339" gradientUnits="userSpaceOnUse">
<stop stop-color="#043DF1"/>
<stop offset="0.1088" stop-color="#0446ED"/>
<stop offset="0.2898" stop-color="#0360E0"/>
<stop offset="0.5207" stop-color="#0289CD"/>
<stop offset="0.7895" stop-color="#01C2B2"/>
<stop offset="0.9924" stop-color="#00F29B"/>
</linearGradient>
<linearGradient id="paint22_linear" x1="147.334" y1="-385.204" x2="-125.168" y2="280.457" gradientUnits="userSpaceOnUse">
<stop stop-color="#043DF1"/>
<stop offset="0.1088" stop-color="#0446ED"/>
<stop offset="0.2898" stop-color="#0360E0"/>
<stop offset="0.5207" stop-color="#0289CD"/>
<stop offset="0.7895" stop-color="#01C2B2"/>
<stop offset="0.9924" stop-color="#00F29B"/>
</linearGradient>
<linearGradient id="paint23_linear" x1="74.9827" y1="-429.815" x2="-206.795" y2="228.212" gradientUnits="userSpaceOnUse">
<stop stop-color="#043DF1"/>
<stop offset="0.1088" stop-color="#0446ED"/>
<stop offset="0.2898" stop-color="#0360E0"/>
<stop offset="0.5207" stop-color="#0289CD"/>
<stop offset="0.7895" stop-color="#01C2B2"/>
<stop offset="0.9924" stop-color="#00F29B"/>
</linearGradient>
<linearGradient id="paint24_linear" x1="55.4963" y1="-441.096" x2="-228.183" y2="215.304" gradientUnits="userSpaceOnUse">
<stop stop-color="#043DF1"/>
<stop offset="0.1088" stop-color="#0446ED"/>
<stop offset="0.2898" stop-color="#0360E0"/>
<stop offset="0.5207" stop-color="#0289CD"/>
<stop offset="0.7895" stop-color="#01C2B2"/>
<stop offset="0.9924" stop-color="#00F29B"/>
</linearGradient>
<linearGradient id="paint25_linear" x1="50.7655" y1="-443.376" x2="-233.265" y2="212.72" gradientUnits="userSpaceOnUse">
<stop stop-color="#043DF1"/>
<stop offset="0.1088" stop-color="#0446ED"/>
<stop offset="0.2898" stop-color="#0360E0"/>
<stop offset="0.5207" stop-color="#0289CD"/>
<stop offset="0.7895" stop-color="#01C2B2"/>
<stop offset="0.9924" stop-color="#00F29B"/>
</linearGradient>
<linearGradient id="paint26_linear" x1="49.0482" y1="-443.701" x2="-235.01" y2="212.371" gradientUnits="userSpaceOnUse">
<stop stop-color="#043DF1"/>
<stop offset="0.1088" stop-color="#0446ED"/>
<stop offset="0.2898" stop-color="#0360E0"/>
<stop offset="0.5207" stop-color="#0289CD"/>
<stop offset="0.7895" stop-color="#01C2B2"/>
<stop offset="0.9924" stop-color="#00F29B"/>
</linearGradient>
<linearGradient id="paint27_linear" x1="48.5279" y1="-443.144" x2="-235.411" y2="213.031" gradientUnits="userSpaceOnUse">
<stop stop-color="#043DF1"/>
<stop offset="0.1088" stop-color="#0446ED"/>
<stop offset="0.2898" stop-color="#0360E0"/>
<stop offset="0.5207" stop-color="#0289CD"/>
<stop offset="0.7895" stop-color="#01C2B2"/>
<stop offset="0.9924" stop-color="#00F29B"/>
</linearGradient>
<linearGradient id="paint28_linear" x1="49.1804" y1="-441.711" x2="-234.489" y2="214.696" gradientUnits="userSpaceOnUse">
<stop stop-color="#043DF1"/>
<stop offset="0.1088" stop-color="#0446ED"/>
<stop offset="0.2898" stop-color="#0360E0"/>
<stop offset="0.5207" stop-color="#0289CD"/>
<stop offset="0.7895" stop-color="#01C2B2"/>
<stop offset="0.9924" stop-color="#00F29B"/>
</linearGradient>
<linearGradient id="paint29_linear" x1="50.324" y1="-439.788" x2="-232.986" y2="216.929" gradientUnits="userSpaceOnUse">
<stop stop-color="#043DF1"/>
<stop offset="0.1088" stop-color="#0446ED"/>
<stop offset="0.2898" stop-color="#0360E0"/>
<stop offset="0.5207" stop-color="#0289CD"/>
<stop offset="0.7895" stop-color="#01C2B2"/>
<stop offset="0.9924" stop-color="#00F29B"/>
</linearGradient>
<linearGradient id="paint30_linear" x1="51.6051" y1="-437.56" x2="-231.28" y2="219.522" gradientUnits="userSpaceOnUse">
<stop stop-color="#043DF1"/>
<stop offset="0.1088" stop-color="#0446ED"/>
<stop offset="0.2898" stop-color="#0360E0"/>
<stop offset="0.5207" stop-color="#0289CD"/>
<stop offset="0.7895" stop-color="#01C2B2"/>
<stop offset="0.9924" stop-color="#00F29B"/>
</linearGradient>
<linearGradient id="paint31_linear" x1="53.2108" y1="-434.881" x2="-229.155" y2="222.645" gradientUnits="userSpaceOnUse">
<stop stop-color="#043DF1"/>
<stop offset="0.1088" stop-color="#0446ED"/>
<stop offset="0.2898" stop-color="#0360E0"/>
<stop offset="0.5207" stop-color="#0289CD"/>
<stop offset="0.7895" stop-color="#01C2B2"/>
<stop offset="0.9924" stop-color="#00F29B"/>
</linearGradient>
<linearGradient id="paint32_linear" x1="41.6555" y1="-439.918" x2="-241.497" y2="216.934" gradientUnits="userSpaceOnUse">
<stop stop-color="#043DF1"/>
<stop offset="0.1088" stop-color="#0446ED"/>
<stop offset="0.2898" stop-color="#0360E0"/>
<stop offset="0.5207" stop-color="#0289CD"/>
<stop offset="0.7895" stop-color="#01C2B2"/>
<stop offset="0.9924" stop-color="#00F29B"/>
</linearGradient>
<linearGradient id="paint33_linear" x1="26.6053" y1="-447.095" x2="-257.656" y2="208.802" gradientUnits="userSpaceOnUse">
<stop stop-color="#043DF1"/>
<stop offset="0.1088" stop-color="#0446ED"/>
<stop offset="0.2898" stop-color="#0360E0"/>
<stop offset="0.5207" stop-color="#0289CD"/>
<stop offset="0.7895" stop-color="#01C2B2"/>
<stop offset="0.9924" stop-color="#00F29B"/>
</linearGradient>
<linearGradient id="paint34_linear" x1="17.1463" y1="-451.016" x2="-267.675" y2="204.394" gradientUnits="userSpaceOnUse">
<stop stop-color="#043DF1"/>
<stop offset="0.1088" stop-color="#0446ED"/>
<stop offset="0.2898" stop-color="#0360E0"/>
<stop offset="0.5207" stop-color="#0289CD"/>
<stop offset="0.7895" stop-color="#01C2B2"/>
<stop offset="0.9924" stop-color="#00F29B"/>
</linearGradient>
<linearGradient id="paint35_linear" x1="8.25633" y1="-454.598" x2="-277.061" y2="200.381" gradientUnits="userSpaceOnUse">
<stop stop-color="#043DF1"/>
<stop offset="0.1088" stop-color="#0446ED"/>
<stop offset="0.2898" stop-color="#0360E0"/>
<stop offset="0.5207" stop-color="#0289CD"/>
<stop offset="0.7895" stop-color="#01C2B2"/>
<stop offset="0.9924" stop-color="#00F29B"/>
</linearGradient>
<linearGradient id="paint36_linear" x1="0.91441" y1="-457.254" x2="-284.749" y2="197.423" gradientUnits="userSpaceOnUse">
<stop stop-color="#043DF1"/>
<stop offset="0.1088" stop-color="#0446ED"/>
<stop offset="0.2898" stop-color="#0360E0"/>
<stop offset="0.5207" stop-color="#0289CD"/>
<stop offset="0.7895" stop-color="#01C2B2"/>
<stop offset="0.9924" stop-color="#00F29B"/>
</linearGradient>
<linearGradient id="paint37_linear" x1="-6.51291" y1="-459.933" x2="-292.52" y2="194.443" gradientUnits="userSpaceOnUse">
<stop stop-color="#043DF1"/>
<stop offset="0.1088" stop-color="#0446ED"/>
<stop offset="0.2898" stop-color="#0360E0"/>
<stop offset="0.5207" stop-color="#0289CD"/>
<stop offset="0.7895" stop-color="#01C2B2"/>
<stop offset="0.9924" stop-color="#00F29B"/>
</linearGradient>
<linearGradient id="paint38_linear" x1="-12.3962" y1="-461.661" x2="-298.602" y2="192.54" gradientUnits="userSpaceOnUse">
<stop stop-color="#043DF1"/>
<stop offset="0.1088" stop-color="#0446ED"/>
<stop offset="0.2898" stop-color="#0360E0"/>
<stop offset="0.5207" stop-color="#0289CD"/>
<stop offset="0.7895" stop-color="#01C2B2"/>
<stop offset="0.9924" stop-color="#00F29B"/>
</linearGradient>
<linearGradient id="paint39_linear" x1="-18.4191" y1="-463.408" x2="-304.823" y2="190.62" gradientUnits="userSpaceOnUse">
<stop stop-color="#043DF1"/>
<stop offset="0.1088" stop-color="#0446ED"/>
<stop offset="0.2898" stop-color="#0360E0"/>
<stop offset="0.5207" stop-color="#0289CD"/>
<stop offset="0.7895" stop-color="#01C2B2"/>
<stop offset="0.9924" stop-color="#00F29B"/>
</linearGradient>
<linearGradient id="paint40_linear" x1="-22.956" y1="-464.198" x2="-309.415" y2="189.782" gradientUnits="userSpaceOnUse">
<stop stop-color="#043DF1"/>
<stop offset="0.1088" stop-color="#0446ED"/>
<stop offset="0.2898" stop-color="#0360E0"/>
<stop offset="0.5207" stop-color="#0289CD"/>
<stop offset="0.7895" stop-color="#01C2B2"/>
<stop offset="0.9924" stop-color="#00F29B"/>
</linearGradient>
<linearGradient id="paint41_linear" x1="-28.4057" y1="-465.396" x2="-314.975" y2="188.486" gradientUnits="userSpaceOnUse">
<stop stop-color="#043DF1"/>
<stop offset="0.1088" stop-color="#0446ED"/>
<stop offset="0.2898" stop-color="#0360E0"/>
<stop offset="0.5207" stop-color="#0289CD"/>
<stop offset="0.7895" stop-color="#01C2B2"/>
<stop offset="0.9924" stop-color="#00F29B"/>
</linearGradient>
<linearGradient id="paint42_linear" x1="-34.2244" y1="-466.633" x2="-320.903" y2="187.152" gradientUnits="userSpaceOnUse">
<stop stop-color="#043DF1"/>
<stop offset="0.1088" stop-color="#0446ED"/>
<stop offset="0.2898" stop-color="#0360E0"/>
<stop offset="0.5207" stop-color="#0289CD"/>
<stop offset="0.7895" stop-color="#01C2B2"/>
<stop offset="0.9924" stop-color="#00F29B"/>
</linearGradient>
<linearGradient id="paint43_linear" x1="-39.5526" y1="-467.326" x2="-326.255" y2="186.44" gradientUnits="userSpaceOnUse">
<stop stop-color="#043DF1"/>
<stop offset="0.1088" stop-color="#0446ED"/>
<stop offset="0.2898" stop-color="#0360E0"/>
<stop offset="0.5207" stop-color="#0289CD"/>
<stop offset="0.7895" stop-color="#01C2B2"/>
<stop offset="0.9924" stop-color="#00F29B"/>
</linearGradient>
<linearGradient id="paint44_linear" x1="-41.4448" y1="-465.571" x2="-327.804" y2="188.496" gradientUnits="userSpaceOnUse">
<stop stop-color="#043DF1"/>
<stop offset="0.1088" stop-color="#0446ED"/>
<stop offset="0.2898" stop-color="#0360E0"/>
<stop offset="0.5207" stop-color="#0289CD"/>
<stop offset="0.7895" stop-color="#01C2B2"/>
<stop offset="0.9924" stop-color="#00F29B"/>
</linearGradient>
<linearGradient id="paint45_linear" x1="-43.316" y1="-462.87" x2="-329.157" y2="191.651" gradientUnits="userSpaceOnUse">
<stop stop-color="#043DF1"/>
<stop offset="0.1088" stop-color="#0446ED"/>
<stop offset="0.2898" stop-color="#0360E0"/>
<stop offset="0.5207" stop-color="#0289CD"/>
<stop offset="0.7895" stop-color="#01C2B2"/>
<stop offset="0.9924" stop-color="#00F29B"/>
</linearGradient>
<linearGradient id="paint46_linear" x1="-31.1355" y1="-441.939" x2="-313.127" y2="215.906" gradientUnits="userSpaceOnUse">
<stop stop-color="#043DF1"/>
<stop offset="0.1088" stop-color="#0446ED"/>
<stop offset="0.2898" stop-color="#0360E0"/>
<stop offset="0.5207" stop-color="#0289CD"/>
<stop offset="0.7895" stop-color="#01C2B2"/>
<stop offset="0.9924" stop-color="#00F29B"/>
</linearGradient>
<linearGradient id="paint47_linear" x1="822.728" y1="498.751" x2="384.259" y2="137.53" gradientUnits="userSpaceOnUse">
<stop stop-color="#FF00FF"/>
<stop offset="0.0844378" stop-color="#F609FB"/>
<stop offset="0.225" stop-color="#DC21F1"/>
<stop offset="0.4043" stop-color="#B249E1"/>
<stop offset="0.6153" stop-color="#797FCA"/>
<stop offset="0.8504" stop-color="#30C4AE"/>
<stop offset="0.9944" stop-color="#00F29B"/>
</linearGradient>
<linearGradient id="paint48_linear" x1="200.3" y1="471.831" x2="672.861" y2="536.58" gradientUnits="userSpaceOnUse">
<stop stop-color="#0D1CF1"/>
<stop offset="0.1213" stop-color="#0D1AE8"/>
<stop offset="0.3229" stop-color="#0C16CE"/>
<stop offset="0.58" stop-color="#0A0EA5"/>
<stop offset="0.8797" stop-color="#08046C"/>
<stop offset="0.9944" stop-color="#070054"/>
</linearGradient>
</defs>
</svg>
